<svg width="12" height="13" viewBox="0 0 12 13" fill="none" xmlns="http://www.w3.org/2000/svg">
<path d="M5.87133 12.2525C5.9359 12.2783 6.00657 12.2846 6.0747 12.2708C6.14283 12.257 6.20546 12.2236 6.25494 12.1747L10.9995 7.4235C11.0618 7.35648 11.0958 7.26784 11.0942 7.17626C11.0926 7.08468 11.0555 6.99729 10.9908 6.93252C10.9262 6.86775 10.8389 6.83065 10.7474 6.82904C10.656 6.82742 10.5675 6.86141 10.5006 6.92386L6.35849 11.0718L6.35849 0.612427C6.35849 0.518668 6.3213 0.42875 6.2551 0.362453C6.18889 0.296156 6.0991 0.258911 6.00548 0.258911C5.91185 0.258911 5.82206 0.296156 5.75586 0.362453C5.68965 0.42875 5.65246 0.518668 5.65246 0.612427L5.65246 11.0718L1.51039 6.92386C1.4606 6.8756 1.39781 6.84297 1.32974 6.82998C1.26167 6.81699 1.1913 6.82422 1.12728 6.85076C1.06326 6.87731 1.00838 6.92202 0.969407 6.97939C0.930431 7.03676 0.909054 7.1043 0.907909 7.17368C0.907557 7.22014 0.916543 7.26621 0.934333 7.30912C0.952122 7.35204 0.978351 7.39094 1.01146 7.4235L5.75601 12.1747C5.78896 12.208 5.82815 12.2345 5.87133 12.2525Z" fill="white"/>
</svg>
