<svg width="104" height="104" viewBox="0 0 104 104" fill="none" xmlns="http://www.w3.org/2000/svg">
<g clip-path="url(#clip0)">
<path d="M15.3342 46.5897C15.0394 48.0641 14.5479 49.3419 13.565 50.3248C12.582 51.3078 11.4025 51.7009 9.92815 51.7009L10.223 49.6368C12.0906 49.6368 13.1718 48.5556 13.4667 46.4914C13.6633 45.5085 13.565 44.7222 13.1718 44.0341C12.8769 43.3461 12.2872 42.9529 11.5008 42.8546C10.3213 42.658 9.43669 43.4444 8.84693 45.1153L8.06059 47.0812C7.56913 48.4573 6.97938 49.3419 6.19304 50.03C5.4067 50.718 4.52207 50.8163 3.53914 50.718C2.16305 50.5214 1.18012 49.8334 0.590369 48.6539C-0.0976777 47.4744 -0.294263 46.0983 0.000614658 44.4273C0.295492 42.658 0.983539 41.2819 2.06475 40.3973C3.14597 39.4144 4.42377 39.0212 5.99645 39.1195L5.70157 41.1836C4.62036 41.1836 3.83402 41.4785 3.14597 42.1666C2.45792 42.7563 2.06476 43.7393 1.86817 44.9188C1.67159 45.9017 1.76988 46.7863 2.16305 47.4744C2.45792 48.1624 3.04768 48.5556 3.73573 48.6539C4.91524 48.8505 5.70157 48.1624 6.29133 46.5897L7.17596 44.2307C8.15889 41.5768 9.63327 40.4956 11.7957 40.7905C13.0735 40.9871 14.0564 41.6751 14.7445 42.7563C15.4325 43.8375 15.5308 44.9188 15.3342 46.5897Z" fill="white"/>
<path d="M12.7791 59.1703C14.6466 60.1532 15.9244 61.6276 16.6125 63.5935C17.3005 65.5593 17.1039 67.5252 16.2193 69.3927C15.2364 71.2603 13.762 72.5381 11.7962 73.2261C9.83031 73.9142 7.86446 73.7176 5.9969 72.833C4.12935 71.85 2.85155 70.3757 2.1635 68.4098C1.47545 66.444 1.67204 64.4781 2.55667 62.6106C3.53959 60.743 5.01398 59.4652 6.97983 58.7771C8.94568 58.0891 10.9115 58.2857 12.7791 59.1703ZM3.93276 67.82C4.42423 69.2944 5.40715 70.3757 6.78324 71.0637C8.15934 71.7517 9.63372 71.85 11.1081 71.3586C12.5825 70.8671 13.762 69.8842 14.4501 68.5081C15.1381 67.132 15.3347 65.7559 14.8432 64.2815C14.3518 62.8071 13.3688 61.7259 11.9927 61.0379C10.6166 60.3498 9.14226 60.2515 7.66788 60.743C6.19349 61.2345 5.01398 62.2174 4.32593 63.5935C3.53959 64.9696 3.4413 66.3457 3.93276 67.82Z" fill="white"/>
<path d="M32.5356 84.4316L22.9029 95.5386L21.3303 94.1625L27.9159 86.4957L19.561 89.1496L18.5781 88.265L20.0525 79.517L13.3686 87.2821L11.7959 86.0043L21.4286 74.8972L22.6081 75.8801L20.7405 86.8889L31.3561 83.4487L32.5356 84.4316Z" fill="white"/>
<path d="M45.0188 99.1762L37.8435 97.7018L35.4845 101.142L33.322 100.749L42.6598 87.4794L44.5274 87.8725L48.0659 103.698L45.9034 103.304L45.0188 99.1762ZM44.6256 97.112L43.1513 90.035L39.023 95.9325L44.6256 97.112Z" fill="white"/>
<path d="M62.1217 95.0482L60.3524 98.5867L61.3353 102.027L59.3695 102.617L55.2412 88.4626L57.2071 87.8728L59.5661 95.7362L64.6773 85.6121L67.0363 84.9241L63.0063 92.984L71.8526 98.7833L69.297 99.4713L62.1217 95.0482Z" fill="white"/>
<path d="M87.1858 85.2183L88.4636 86.5944L80.9934 93.2783L71.2625 82.2695L72.8351 80.8934L81.3866 90.5261L87.1858 85.2183Z" fill="white"/>
<path d="M82.4683 69.1984L95.2463 76.472L94.2634 78.2413L81.4854 70.9676L82.4683 69.1984Z" fill="white"/>
<path d="M28.014 12.7769C28.8987 12.3837 29.7833 12.2854 30.5696 12.5803C31.356 12.7769 32.044 13.3666 32.5355 14.0547C33.2235 15.0376 33.3218 16.1188 32.9286 17.2983C32.5355 18.4778 31.6508 19.4608 30.2748 20.3454L24.6721 24.0805L16.4155 11.8923L21.8216 8.25544C23.0994 7.3708 24.2789 7.07593 25.3601 7.07593C26.4414 7.17422 27.326 7.66568 28.014 8.64861C28.5055 9.33665 28.7021 10.0247 28.7021 10.7127C28.7021 11.4991 28.4072 12.0888 28.014 12.7769ZM19.266 12.2854L21.8216 16.1188L25.2618 13.8581C26.1465 13.2684 26.6379 12.6786 26.9328 11.9905C27.1294 11.3025 27.0311 10.7127 26.6379 10.0247C26.2448 9.43495 25.7533 9.14007 25.0653 9.14007C24.3772 9.14007 23.6892 9.33665 22.8045 9.92641L19.266 12.2854ZM25.4584 21.4266L29.2918 18.871C30.1765 18.2813 30.7662 17.5932 30.9628 16.9052C31.1594 16.2171 31.1594 15.5291 30.7662 14.9393C30.373 14.3496 29.7833 14.0547 29.0952 14.0547C28.4072 14.0547 27.6209 14.3496 26.7362 14.9393L22.9028 17.5932L25.4584 21.4266Z" fill="white"/>
<path d="M48.9503 10.6142L41.6767 11.4989L40.4972 15.4306L38.3347 15.7254L42.9545 0.195242L44.9203 -0.00134277L53.2752 13.8579L51.1127 14.1528L48.9503 10.6142ZM47.8691 8.84497L44.2323 2.55426L42.2664 9.43473L47.8691 8.84497Z" fill="white"/>
<path d="M65.1689 11.8919L62.0236 10.8107L60.2543 15.627L58.2885 14.9389L63.3014 1.07971L68.7075 3.04556C70.2801 3.63531 71.3613 4.51995 72.0494 5.69946C72.7374 6.87896 72.8357 8.15676 72.3443 9.53286C71.9511 10.6141 71.2631 11.4004 70.3784 11.9902C69.4938 12.5799 68.4126 12.6782 67.2331 12.5799L69.5921 19.0672L67.2331 18.1826L65.1689 11.8919ZM62.7116 9.0414L66.1518 10.3192C67.1348 10.7124 68.1177 10.7124 68.904 10.5158C69.6904 10.2209 70.2801 9.72944 70.575 8.84481C70.8699 8.05847 70.7716 7.27213 70.2801 6.48579C69.7887 5.79775 69.1006 5.20799 68.1177 4.81482L64.6775 3.53702L62.7116 9.0414Z" fill="white"/>
<path d="M83.647 26.7344L78.6341 21.3283L74.7024 22.7044L73.228 21.1317L88.5616 15.9222L89.8394 17.3966L83.4504 32.2388L81.9761 30.6661L83.647 26.7344ZM84.4334 24.8668L87.3821 18.2813L80.6 20.6403L84.4334 24.8668Z" fill="white"/>
<path d="M103.109 45.5084L88.8566 49.1452L88.4635 47.4742L96.8183 36.0723L86.301 38.7262L85.8096 36.7604L100.062 33.1235L100.455 34.6962L91.8054 46.1964L102.519 43.4442L103.109 45.5084Z" fill="white"/>
<path d="M13.2698 29.7806C14.3555 29.7806 15.2357 28.9004 15.2357 27.8147C15.2357 26.729 14.3555 25.8489 13.2698 25.8489C12.1841 25.8489 11.304 26.729 11.304 27.8147C11.304 28.9004 12.1841 29.7806 13.2698 29.7806Z" fill="white"/>
<path d="M94.8528 64.1843C95.9385 64.1843 96.8187 63.3041 96.8187 62.2184C96.8187 61.1327 95.9385 60.2526 94.8528 60.2526C93.7671 60.2526 92.887 61.1327 92.887 62.2184C92.887 63.3041 93.7671 64.1843 94.8528 64.1843Z" fill="white"/>
</g>
<defs>
<clipPath id="clip0">
<rect width="103.109" height="103.6" fill="white"/>
</clipPath>
</defs>
</svg>
